<svg xmlns="http://www.w3.org/2000/svg" version="1.1" xmlns:xlink="http://www.w3.org/1999/xlink" xmlns:svgjs="http://svgjs.dev/svgjs" width="1440" height="560" preserveAspectRatio="none" viewBox="0 0 1440 560"><g mask="url(&quot;#SvgjsMask1785&quot;)" fill="none"><rect width="1440" height="560" x="0" y="0" fill="url(&quot;#SvgjsLinearGradient1786&quot;)"></rect><path d="M302.052,310.588C341.831,310.852,383.996,301.709,404.865,267.843C426.58,232.603,419.304,188.562,399.718,152.096C378.831,113.209,346.16,74.731,302.052,76.425C259.589,78.056,236.429,121.563,216.57,159.131C198.47,193.37,182.54,232.766,201.576,266.494C220.844,300.633,262.852,310.328,302.052,310.588" fill="rgba(28, 83, 142, 0.4)" class="triangle-float1"></path><path d="M455.63880623106877 68.16267076563955L501.0095519529478-20.882431430723273 344.75652579746406-44.415998915360404z" fill="rgba(28, 83, 142, 0.4)" class="triangle-float2"></path><path d="M655.685174633237 427.8581283732004L777.6462040572031 558.8954705905521 826.0026040150051 410.06977452336264z" fill="rgba(28, 83, 142, 0.4)" class="triangle-float1"></path><path d="M581.8198808489223 149.10529073941115L695.6761314139486 63.308451996616995 609.8792926711544-50.54779856840935 496.0230421061281 35.2490401743848z" fill="rgba(28, 83, 142, 0.4)" class="triangle-float1"></path><path d="M1183.785,535.174C1210.531,535.464,1231.216,514.826,1244.799,491.784C1258.651,468.286,1268.678,439.012,1254.04,415.995C1240.027,393.961,1209.879,394.885,1183.785,395.844C1159.968,396.719,1134.512,400.604,1121.94,420.851C1108.804,442.006,1113.172,468.582,1125.02,490.485C1137.57,513.684,1157.411,534.888,1183.785,535.174" fill="rgba(28, 83, 142, 0.4)" class="triangle-float3"></path></g><defs><mask id="SvgjsMask1785"><rect width="1440" height="560" fill="#ffffff"></rect></mask><linearGradient x1="15.28%" y1="-39.29%" x2="84.72%" y2="139.29%" gradientUnits="userSpaceOnUse" id="SvgjsLinearGradient1786"><stop stop-color="#0e2a47" offset="0"></stop><stop stop-color="rgba(205, 205, 218, 0)" offset="1"></stop></linearGradient><style>
                @keyframes float1 {
                    0%{transform: translate(0, 0)}
                    50%{transform: translate(-10px, 0)}
                    100%{transform: translate(0, 0)}
                }

                .triangle-float1 {
                    animation: float1 5s infinite;
                }

                @keyframes float2 {
                    0%{transform: translate(0, 0)}
                    50%{transform: translate(-5px, -5px)}
                    100%{transform: translate(0, 0)}
                }

                .triangle-float2 {
                    animation: float2 4s infinite;
                }

                @keyframes float3 {
                    0%{transform: translate(0, 0)}
                    50%{transform: translate(0, -10px)}
                    100%{transform: translate(0, 0)}
                }

                .triangle-float3 {
                    animation: float3 6s infinite;
                }
            </style></defs></svg>