<svg xmlns="http://www.w3.org/2000/svg" version="1.1" xmlns:xlink="http://www.w3.org/1999/xlink" xmlns:svgjs="http://svgjs.dev/svgjs" width="1440" height="560" preserveAspectRatio="none" viewBox="0 0 1440 560"><g mask="url(&quot;#SvgjsMask3041&quot;)" fill="none"><rect width="1440" height="560" x="0" y="0" fill="url(&quot;#SvgjsLinearGradient3042&quot;)"></rect><path d="M974.76 372.38L999.43 372.38L999.43 397.05L974.76 397.05z" fill="rgba(203, 205, 230, 1)"></path><path d="M-14.91 31.82a35.2 35.2 0 1 0 56.13-42.49z" fill="rgba(225, 226, 233, 1)"></path><path d="M392.88 262.53L425.72 262.53L425.72 263.98L392.88 263.98z" stroke="rgba(218, 218, 221, 1)"></path><path d="M1110.31 361.93L1134.99 361.93L1134.99 386.51L1110.31 386.51z" fill="rgba(225, 226, 233, 1)"></path><path d="M1386.08 263.43L1394.16 263.43L1394.16 271.51L1386.08 271.51z" fill="rgba(218, 218, 221, 1)"></path><path d="M1191.66 529.57L1228.33 529.57L1228.33 566.24L1191.66 566.24z" stroke="rgba(203, 205, 230, 1)"></path><path d="M518.22 11.11a50.67 50.67 0 1 0 37.98 93.96z" fill="rgba(223, 225, 243, 1)"></path><path d="M612.34 492.97L617.03 492.97L617.03 522.4L612.34 522.4z" fill="rgba(218, 218, 221, 1)"></path><path d="M85.04 230.32L106.87 230.32L106.87 277.29L85.04 277.29z" stroke="rgba(203, 205, 230, 1)"></path><path d="M1301.36 105.85 a54.73 54.73 0 1 0 109.46 0 a54.73 54.73 0 1 0 -109.46 0z" fill="rgba(225, 226, 233, 1)"></path><path d="M72.78 393.27 a10.77 10.77 0 1 0 21.54 0 a10.77 10.77 0 1 0 -21.54 0z" fill="rgba(223, 225, 243, 1)"></path><path d="M500.93 474.93 a39.65 39.65 0 1 0 79.3 0 a39.65 39.65 0 1 0 -79.3 0z" fill="rgba(218, 218, 221, 1)"></path><path d="M263.26 500.05 a48.31 48.31 0 1 0 96.62 0 a48.31 48.31 0 1 0 -96.62 0z" fill="rgba(225, 226, 233, 1)"></path><path d="M772.01 393.53 a22.41 22.41 0 1 0 44.82 0 a22.41 22.41 0 1 0 -44.82 0z" fill="rgba(218, 218, 221, 1)"></path><path d="M875.68 72.19L923.51 72.19L923.51 77.78L875.68 77.78z" fill="rgba(225, 226, 233, 1)"></path><path d="M816.77 381.96a51.73 51.73 0 1 0-67.77-78.17z" stroke="rgba(203, 205, 230, 1)"></path><path d="M667.25 119L718.11 119L718.11 169.86L667.25 169.86z" stroke="rgba(223, 225, 243, 1)"></path><path d="M474.75 13.74a14.45 14.45 0 1 0-20.57 20.3z" fill="rgba(203, 205, 230, 1)"></path><path d="M259.29 540.02 a25.44 25.44 0 1 0 50.88 0 a25.44 25.44 0 1 0 -50.88 0z" fill="rgba(218, 218, 221, 1)"></path><path d="M484.1 316.38L491.31 316.38L491.31 323.59L484.1 323.59z" fill="rgba(223, 225, 243, 1)"></path><path d="M1391.18 392.33L1416.99 392.33L1416.99 424.51L1391.18 424.51z" fill="rgba(203, 205, 230, 1)"></path><path d="M896.24 419.17 a27.62 27.62 0 1 0 55.24 0 a27.62 27.62 0 1 0 -55.24 0z" fill="rgba(218, 218, 221, 1)"></path><path d="M964.55 481.22L979.41 481.22L979.41 527.33L964.55 527.33z" stroke="rgba(223, 225, 243, 1)"></path><path d="M964.88 505.3L989.54 505.3L989.54 529.96L964.88 529.96z" fill="rgba(225, 226, 233, 1)"></path><path d="M1369.98 259.23L1413.17 259.23L1413.17 302.42L1369.98 302.42z" fill="rgba(225, 226, 233, 1)"></path><path d="M1163.32 72.39L1200.73 72.39L1200.73 115.76L1163.32 115.76z" fill="rgba(225, 226, 233, 1)"></path><path d="M1257.14 330.18L1287.03 330.18L1287.03 360.07L1257.14 360.07z" stroke="rgba(225, 226, 233, 1)"></path><path d="M792.67 354.04a31.53 31.53 0 1 0 52-35.66z" stroke="rgba(225, 226, 233, 1)"></path><path d="M603.27 34.76a35.72 35.72 0 1 0 38.79-59.99z" fill="rgba(203, 205, 230, 1)"></path><path d="M215.24 4.49a55.77 55.77 0 1 0-63.4 91.78z" stroke="rgba(223, 225, 243, 1)"></path><path d="M449.92 106.18 a51.39 51.39 0 1 0 102.78 0 a51.39 51.39 0 1 0 -102.78 0z" stroke="rgba(218, 218, 221, 1)"></path><path d="M628.07 525.66a6.14 6.14 0 1 0-3.75-11.69z" stroke="rgba(218, 218, 221, 1)"></path><path d="M1247.77 60.86L1296.06 60.86L1296.06 109.15L1247.77 109.15z" stroke="rgba(225, 226, 233, 1)"></path></g><defs><mask id="SvgjsMask3041"><rect width="1440" height="560" fill="#ffffff"></rect></mask><linearGradient x1="15.28%" y1="-39.29%" x2="84.72%" y2="139.29%" gradientUnits="userSpaceOnUse" id="SvgjsLinearGradient3042"><stop stop-color="rgba(214, 194, 194, 1)" offset="0.73"></stop><stop stop-color="rgba(91, 54, 10, 1)" offset="0.95"></stop></linearGradient></defs></svg>