<svg xmlns="http://www.w3.org/2000/svg" version="1.1" xmlns:xlink="http://www.w3.org/1999/xlink" xmlns:svgjs="http://svgjs.dev/svgjs" width="1440" height="560" preserveAspectRatio="none" viewBox="0 0 1440 560"><g mask="url(&quot;#SvgjsMask1236&quot;)" fill="none"><path d="M441.24 433.74L443.5 433.74L443.5 436L441.24 436z" stroke="#037b0b"></path><path d="M1227.56 226.97L1241.58 226.97L1241.58 240.99L1227.56 240.99z" stroke="#e73635"></path><path d="M879.84 10.48L909.15 10.48L909.15 26.96L879.84 26.96z" fill="#d3b714"></path><path d="M1335.81 71.41a14.53 14.53 0 1 0-8.71 27.73z" stroke="#037b0b"></path><path d="M296.29 21.95 a30.5 30.5 0 1 0 61 0 a30.5 30.5 0 1 0 -61 0z" fill="#037b0b"></path><path d="M239.39 442.89 a13.74 13.74 0 1 0 27.48 0 a13.74 13.74 0 1 0 -27.48 0z" stroke="#d3b714"></path><path d="M1165.83 295.28L1209.1 295.28L1209.1 323.82L1165.83 323.82z" stroke="#037b0b"></path><path d="M1244.04 21.74a35.42 35.42 0 1 0 70.4-7.92z" stroke="#037b0b"></path><path d="M811.64 480.95 a48.82 48.82 0 1 0 97.64 0 a48.82 48.82 0 1 0 -97.64 0z" stroke="#e73635"></path><path d="M982.1 403.33L1009.08 403.33L1009.08 432.4L982.1 432.4z" stroke="#037b0b"></path><path d="M1308 182.24L1354.31 182.24L1354.31 203.73L1308 203.73z" stroke="#d3b714"></path><path d="M662.39 1.78L673.26 1.78L673.26 10.16L662.39 10.16z" stroke="#d3b714"></path><path d="M440.68 484.35L444.5 484.35L444.5 489.75L440.68 489.75z" fill="#037b0b"></path><path d="M802.1 69.05 a12.6 12.6 0 1 0 25.2 0 a12.6 12.6 0 1 0 -25.2 0z" fill="#037b0b"></path><path d="M1389 465.54L1389.57 465.54L1389.57 520.16L1389 520.16z" stroke="#037b0b"></path><path d="M743.76 457.11a29.28 29.28 0 1 0-56.68-14.72z" fill="#d3b714"></path><path d="M1104.09 28.25L1117.64 28.25L1117.64 41.8L1104.09 41.8z" fill="#d3b714"></path><path d="M872.61 33.5L880.86 33.5L880.86 41.75L872.61 41.75z" fill="#e73635"></path><path d="M80.59 434.71L96.85 434.71L96.85 469.88L80.59 469.88z" fill="#e73635"></path><path d="M758.82 58.99L773.57 58.99L773.57 88.57L758.82 88.57z" stroke="#e73635"></path><path d="M1371.73 371.45a40.1 40.1 0 1 0 39.93-69.55z" fill="#e73635"></path><path d="M616.15 66.94L639.46 66.94L639.46 80.77L616.15 80.77z" fill="#037b0b"></path><path d="M471.3 380.35L484.98 380.35L484.98 394.03L471.3 394.03z" fill="#d3b714"></path><path d="M190.3 349.87L221.83 349.87L221.83 381.4L190.3 381.4z" stroke="#037b0b"></path><path d="M703.19 529.97 a6.09 6.09 0 1 0 12.18 0 a6.09 6.09 0 1 0 -12.18 0z" fill="#d3b714"></path><path d="M828.93 247.68L869.5 247.68L869.5 254.63L828.93 254.63z" stroke="#e73635"></path><path d="M349.84 141.12a25.32 25.32 0 1 0-5.34 50.35z" stroke="#e73635"></path><path d="M1382.61 448.56a5.24 5.24 0 1 0-10.47 0.44z" fill="#d3b714"></path><path d="M558.63 551.56L593.08 551.56L593.08 597.23L558.63 597.23z" fill="#e73635"></path><path d="M146.3 534.34a19.44 19.44 0 1 0-18.33 34.29z" fill="#d3b714"></path><path d="M379.01 225.38a2.96 2.96 0 1 0-0.45 5.91z" stroke="#037b0b"></path><path d="M407.81 149.83 a8.51 8.51 0 1 0 17.02 0 a8.51 8.51 0 1 0 -17.02 0z" fill="#e73635"></path><path d="M182.09 60.62a41.91 41.91 0 1 0-7.04 83.52z" fill="#d3b714"></path></g><defs><mask id="SvgjsMask1236"><rect width="1440" height="560" fill="#ffffff"></rect></mask></defs></svg>